<svg xmlns="http://www.w3.org/2000/svg" viewBox="0 0 100 100">
  <defs>
    <linearGradient id="grad" x1="0%" y1="0%" x2="100%" y2="100%">
      <stop offset="0%" style="stop-color:#6366f1"/>
      <stop offset="50%" style="stop-color:#8b5cf6"/>
      <stop offset="100%" style="stop-color:#a855f7"/>
    </linearGradient>
  </defs>
  <rect width="100" height="100" rx="20" fill="url(#grad)"/>
  <g fill="white">
    <path d="M25,75 C20,70 20,60 25,55 L35,45 C38,42 43,42 46,45 L48,47 C52,43 56,39 60,35 L58,33 C55,30 55,25 58,22 L68,12 C73,7 83,7 88,12 C93,17 93,27 88,32 C78,42 58,62 48,72 C43,77 33,82 25,75 Z"/>
    <path d="M60,22 C68,22 75,29 75,37" fill="none" stroke="white" stroke-width="5" stroke-linecap="round"/>
    <path d="M60,10 C80,10 95,25 95,45" fill="none" stroke="white" stroke-width="5" stroke-linecap="round"/>
  </g>
</svg>